<svg width="17" height="20" viewBox="0 0 17 20" fill="none" xmlns="http://www.w3.org/2000/svg">
<path d="M14.0156 13.5L16.0312 15.5156V16.5H0V15.5156L2.01562 13.5V8.53125C2.01562 6.96875 2.40625 5.60938 3.1875 4.45312C4 3.29687 5.10938 2.54687 6.51562 2.20312V1.5C6.51562 1.09375 6.65625 0.75 6.9375 0.46875C7.21875 0.15625 7.57812 0 8.01562 0C8.45312 0 8.8125 0.15625 9.09375 0.46875C9.375 0.75 9.51562 1.09375 9.51562 1.5V2.20312C10.9219 2.54687 12.0156 3.29687 12.7969 4.45312C13.6094 5.60938 14.0156 6.96875 14.0156 8.53125V13.5ZM8.01562 19.5C7.45312 19.5 6.96875 19.3125 6.5625 18.9375C6.1875 18.5625 6 18.0938 6 17.5312H10.0312C10.0312 18.0625 9.82812 18.5312 9.42188 18.9375C9.01562 19.3125 8.54688 19.5 8.01562 19.5Z" fill="white"/>
</svg>
